Coordinates
version=1
nRows=8
nColumns=63
inDegrees=yes

Units are S.I. units (second, meters, Newtons, ...)
If the header above contains a line with 'inDegrees', this indicates whether rotational values are in degrees (yes) or radians (no).

endheader
time	pelvis_tilt	pelvis_list	pelvis_rotation	pelvis_tx	pelvis_ty	pelvis_tz	hip_flexion_r	hip_adduction_r	hip_rotation_r	knee_angle_r	knee_angle_r_beta	ankle_angle_r	subtalar_angle_r	mtp_angle_r	hip_flexion_l	hip_adduction_l	hip_rotation_l	knee_angle_l	knee_angle_l_beta	ankle_angle_l	subtalar_angle_l	mtp_angle_l	L5_S1_Flex_Ext	L5_S1_Lat_Bending	L5_S1_axial_rotation	L4_L5_Flex_Ext	L4_L5_Lat_Bending	L4_L5_axial_rotation	L3_L4_Flex_Ext	L3_L4_Lat_Bending	L3_L4_axial_rotation	L2_L3_Flex_Ext	L2_L3_Lat_Bending	L2_L3_axial_rotation	L1_L2_Flex_Ext	L1_L2_Lat_Bending	L1_L2_axial_rotation	L1_T12_Flex_Ext	L1_T12_Lat_Bending	L1_T12_axial_rotation	Abs_r3	Abs_r2	Abs_r1	Abs_t1	Abs_t2	neck_flexion	neck_bending	neck_rotation	arm_flex_r	arm_add_r	arm_rot_r	elbow_flex_r	pro_sup_r	wrist_flex_r	wrist_dev_r	arm_flex_l	arm_add_l	arm_rot_l	elbow_flex_l	pro_sup_l	wrist_flex_l	wrist_dev_l
      1.30000000	     -9.30303614	     -0.55082615	     88.65671483	      0.17814084	      0.96412767	      0.63217550	     -4.22858270	     -7.40114379	    -10.83321662	     13.51852430	      0.23594276	     33.41537588	      8.34776059	      0.00000000	     -8.82843311	      6.68721096	      3.30943026	      3.01048467	      0.05254287	     24.45080262	     -1.58957712	      0.00000000	     -0.06223398	     -0.38881500	      0.27759748	     -0.11557472	     -0.51712395	      0.29494732	     -0.10224420	     -0.94536478	      0.29494732	     -0.07112721	     -0.94536478	      0.24289779	     -0.05779047	     -0.79287154	      0.22554795	     -0.03556049	     -0.60227443	      0.20819811	     -0.44453107	     -4.39835301	      1.54391388	      0.00000000	      0.00000000	     18.25609333	      3.56747304	      0.45102924	     -8.02225450	    -16.03437804	    -14.84658295	     89.13948411	     88.85736358	    -16.76812364	     13.10035162	    -13.77288609	    -10.59703336	    -22.57266310	    103.04832998	     71.77691411	    -43.12264697	    -18.96535125
      1.32500000	     -9.34305283	     -0.94491615	     88.93669260	      0.17873850	      0.96369987	      0.63215957	     -3.90989913	     -7.33940590	    -11.11467668	     13.40298259	      0.23392618	     33.45682198	      8.30324939	      0.00000000	     -8.57099638	      6.65448170	      6.00116531	      2.63804240	      0.04604253	     23.88117451	     -4.10927711	      0.00000000	     -0.06023936	     -0.46568936	      0.34517381	     -0.11187051	     -0.61936685	      0.36674718	     -0.09896724	     -1.13227711	      0.36674718	     -0.06884756	     -1.13227711	      0.30202709	     -0.05593827	     -0.94963374	      0.28045372	     -0.03442077	     -0.72135282	      0.25888036	     -0.43028372	     -5.26797116	      1.91975319	      0.00000000	      0.00000000	     18.92037034	      3.14393573	      0.78145740	     -9.61832955	    -15.84912503	    -15.85096305	     93.13428378	     88.75550404	    -16.11588692	     14.83830177	    -13.95524170	    -12.04004509	    -21.92221695	    109.37144122	     83.25867970	    -55.10134063	    -15.82643167
      1.35000000	     -9.33851672	     -1.38956353	     89.33617759	      0.17911271	      0.96322612	      0.63230308	     -3.56720487	     -7.21035632	    -11.30340976	     13.22497403	      0.23081934	     33.62551504	      8.25100205	      0.00000000	     -8.15218449	      6.52588490	      7.22772284	      2.43027922	      0.04241637	     24.02726441	     -4.50376425	      0.00000000	     -0.04999325	     -0.52942978	      0.29587405	     -0.09284247	     -0.70414160	      0.31436618	     -0.08213391	     -1.28725556	      0.31436618	     -0.05713729	     -1.28725556	      0.25888979	     -0.04642373	     -1.07961320	      0.24039766	     -0.02856614	     -0.82008672	      0.22190554	     -0.35709679	     -5.98901552	      1.64556269	      0.00000000	      0.00000000	     19.17737953	      1.85448455	      1.98879261	    -10.36744439	    -15.53980167	    -16.41231839	     96.00155038	     88.55763250	    -15.09530953	     14.81606825	    -13.91457406	    -12.70579953	    -22.49676363	    114.03562884	     86.99501397	    -61.15133333	    -18.95860222
      1.37500000	     -9.46630114	     -1.85803610	     89.65832425	      0.17961396	      0.96233660	      0.63246532	     -3.10684014	     -7.25301409	    -11.49202702	     13.26317924	      0.23148615	     34.08827296	      8.18997471	      0.00000000	     -7.65044916	      6.54266416	      7.80642570	      2.33803743	      0.04080645	     24.27108542	     -4.56144288	      0.00000000	     -0.03078116	     -0.60717620	      0.24868190	     -0.05716369	     -0.80754435	      0.26422452	     -0.05057037	     -1.47628822	      0.26422452	     -0.03517979	     -1.47628822	      0.21759667	     -0.02858338	     -1.23815371	      0.20205405	     -0.01758835	     -0.94051594	      0.18651143	     -0.21986675	     -6.86849864	      1.38309414	      0.00000000	      0.00000000	     19.42145425	     -0.46091854	      2.67157379	    -10.76786015	    -14.97452685	    -16.76989725	     98.10824449	     88.14653821	    -14.66642577	     12.98118365	    -13.71284710	    -12.79475696	    -23.66144570	    118.09696298	     87.83120550	    -62.97987132	    -21.66999935
      1.40000000	     -9.52042726	     -2.07068420	     89.84502264	      0.18035387	      0.96132383	      0.63189853	     -3.06222442	     -7.20205681	    -11.49729155	     13.07144528	      0.22813976	     34.52473992	      8.22535714	      0.00000000	     -7.50282431	      6.50974944	      7.95917499	      2.21514820	      0.03866163	     24.74986542	     -4.61425488	      0.00000000	     -0.02464170	     -0.68185376	      0.23712154	     -0.04576210	     -0.90686551	      0.25194164	     -0.04048385	     -1.65785924	      0.25194164	     -0.02816300	     -1.65785924	      0.20748135	     -0.02288228	     -1.39043620	      0.19266125	     -0.01408027	     -1.05619148	      0.17784116	     -0.17601321	     -7.71326616	      1.31879888	      0.00000000	      0.00000000	     19.56744458	     -1.96832516	      3.19378210	    -11.02409001	    -14.19933458	    -17.28318974	    100.08575273	     87.63197325	    -14.61001198	     11.67487278	    -13.22762515	    -12.04777220	    -24.88810248	    121.66040520	     87.99409189	    -63.45565558	    -22.73612497
      1.42500000	     -9.76392200	     -2.51548430	     90.67155716	      0.18031579	      0.96047924	      0.63250563	     -2.82825999	     -7.38631458	    -12.70978595	     12.92676352	      0.22561459	     34.87280168	      8.86048474	      0.00000000	     -6.96617943	      6.60089427	      8.55316491	      2.25864029	      0.03942071	     24.83807292	     -4.70688253	      0.00000000	      0.00675623	     -0.76631695	     -0.06977272	      0.01254699	     -1.01920154	     -0.07413352	      0.01109980	     -1.86322303	     -0.07413352	      0.00772169	     -1.86322303	     -0.06105113	      0.00627383	     -1.56267352	     -0.05669034	      0.00386051	     -1.18702495	     -0.05232954	      0.04825905	     -8.66873058	     -0.38805496	      0.00000000	      0.00000000	     20.50652161	     -5.15336372	      3.90285707	    -10.19176003	    -13.76644405	    -16.36128070	    100.53262970	     84.31385460	    -13.22172530	      5.93696443	    -12.95997202	    -10.26775715	    -27.60809157	    124.74118738	     87.62563998	    -62.34417617	    -23.40444070
      1.45000000	     -9.88527933	     -2.72349109	     91.36284076	      0.18036346	      0.96000777	      0.63270663	     -2.92392744	     -7.46256518	    -13.98034746	     12.63836438	      0.22058107	     35.13523697	      9.85859718	      0.00000000	     -6.70821863	      6.58448206	      9.10868727	      2.29356450	      0.04003025	     24.98022934	     -4.73446023	      0.00000000	      0.02800344	     -0.82532858	     -0.33852239	      0.05200519	     -1.09768702	     -0.35968003	      0.04600685	     -2.00670392	     -0.35968003	      0.03200513	     -2.00670392	     -0.29620709	      0.02600399	     -1.68301005	     -0.27504944	      0.01600116	     -1.27843397	     -0.25389179	      0.20002576	     -9.33628199	     -1.88275995	      0.00000000	      0.00000000	     21.07522637	     -7.06538845	      4.98396693	     -9.38413573	    -13.36954228	    -15.49469394	    101.25605892	     80.18333217	    -12.05196474	      1.77873885	    -12.45548462	     -8.28312716	    -30.12753093	    126.80305134	     87.58923941	    -60.53584034	    -23.60875477
      1.47500000	     -9.91443737	     -2.82008035	     91.51491533	      0.18087798	      0.95983088	      0.63300940	     -2.92988404	     -7.42946171	    -14.06638162	     12.49587381	      0.21809414	     35.23580396	      9.96470936	      0.00000000	     -6.56396984	      6.55490255	      9.14806670	      2.27293086	      0.03967013	     25.09069581	     -4.76137220	      0.00000000	      0.04379575	     -0.85256049	     -0.42041400	      0.08133309	     -1.13390545	     -0.44668988	      0.07195204	     -2.07291556	     -0.44668988	      0.05005417	     -2.07291556	     -0.36786225	      0.04066874	     -1.73854134	     -0.34158638	      0.02502489	     -1.32061619	     -0.31531050	      0.31282868	     -9.64433473	     -2.33821655	      0.00000000	      0.00000000	     21.17735975	     -7.97568542	      5.49856478	     -9.03039832	    -12.60941486	    -15.71732632	    102.75941073	     79.93108617	    -11.88172695	      0.53735088	    -11.82010158	     -7.38988958	    -30.95267103	    127.42356780	     87.65497069	    -60.64635169	    -23.57823773
